<svg width="25" height="25" viewBox="0 0 25 25" fill="none" xmlns="http://www.w3.org/2000/svg">
<path d="M18.107 10.9946L13.1353 3.07757C13.0631 2.97633 12.9678 2.89379 12.8573 2.83684C12.7468 2.7799 12.6243 2.75018 12.5 2.75018C12.3757 2.75018 12.2532 2.7799 12.1427 2.83684C12.0322 2.89379 11.9369 2.97633 11.8647 3.07757L6.8705 11.0321C6.17666 12.1513 5.79017 13.4336 5.75 14.7498C5.75 16.54 6.46116 18.2569 7.72703 19.5228C8.9929 20.7887 10.7098 21.4998 12.5 21.4998C14.2902 21.4998 16.0071 20.7887 17.273 19.5228C18.5388 18.2569 19.25 16.54 19.25 14.7498C19.2069 13.4192 18.8125 12.1236 18.107 10.9946ZM12.5 19.9998C11.1082 19.998 9.77384 19.4443 8.78966 18.4602C7.80548 17.476 7.25179 16.1417 7.25 14.7498C7.28986 13.701 7.6049 12.6811 8.1635 11.7926L8.86475 10.6751L16.4202 18.2306C15.9295 18.7865 15.3263 19.2318 14.6504 19.537C13.9745 19.8421 13.2415 20.0002 12.5 20.0006V19.9998Z" fill="white"/>
</svg>
