<svg width="25" height="25" viewBox="0 0 25 25" fill="none" xmlns="http://www.w3.org/2000/svg">
<path d="M12.83 4C8.14 4 4.09 6.74 2.18 10.7C1.94 11.2 1.94 11.8 2.18 12.3C4.09 16.26 8.14 19 12.83 19C17.52 19 21.57 16.26 23.48 12.3C23.72 11.8 23.72 11.2 23.48 10.7C21.57 6.74 17.52 4 12.83 4ZM12.83 16C10.35 16 8.33 13.98 8.33 11.5C8.33 9.02 10.35 7 12.83 7C15.31 7 17.33 9.02 17.33 11.5C17.33 13.98 15.31 16 12.83 16Z" fill="white"/>
<path d="M12.5 14.6998C13.9912 14.6998 15.2 13.491 15.2 11.9998C15.2 10.5087 13.9912 9.29982 12.5 9.29982C11.0088 9.29982 9.79999 10.5087 9.79999 11.9998C9.79999 13.491 11.0088 14.6998 12.5 14.6998Z" fill="white"/>
</svg>
