<svg width="24" height="25" viewBox="0 0 24 25" fill="none" xmlns="http://www.w3.org/2000/svg">
<path d="M19.9547 6.04279C17.8847 3.9852 15.0962 2.8126 12.1778 2.77259C9.25947 2.73258 6.4398 3.8283 4.31422 5.82837C2.18864 7.82843 0.923551 10.5763 0.786086 13.4917C0.648622 16.407 1.64955 19.2617 3.5775 21.4529L3.58594 21.4623C3.60141 21.4787 3.61594 21.4956 3.63281 21.5115C3.6675 21.5509 3.70688 21.5954 3.75328 21.6418C3.93527 21.8353 4.15524 21.9891 4.3994 22.0936C4.64357 22.1981 4.90668 22.2511 5.17226 22.2493C5.43785 22.2474 5.7002 22.1908 5.94288 22.0829C6.18557 21.975 6.40337 21.8181 6.58266 21.6222C7.2725 20.8724 8.11037 20.274 9.04332 19.8646C9.97627 19.4552 10.984 19.2439 12.0028 19.2439C13.0216 19.2439 14.0294 19.4552 14.9623 19.8646C15.8953 20.274 16.7331 20.8724 17.423 21.6222C17.6036 21.8191 17.8231 21.9765 18.0677 22.0842C18.3123 22.1919 18.5766 22.2477 18.8438 22.2479C19.1111 22.2482 19.3755 22.193 19.6203 22.0857C19.8651 21.9785 20.0849 21.8216 20.2659 21.625L20.4164 21.4609L20.4248 21.4515C22.3245 19.3065 23.3338 16.5172 23.2466 13.6533C23.1595 10.7893 21.9826 8.06656 19.9561 6.04091L19.9547 6.04279ZM11.25 6.49982C11.25 6.30091 11.329 6.11014 11.4697 5.96949C11.6103 5.82884 11.8011 5.74982 12 5.74982C12.1989 5.74982 12.3897 5.82884 12.5303 5.96949C12.671 6.11014 12.75 6.30091 12.75 6.49982V7.99982C12.75 8.19873 12.671 8.3895 12.5303 8.53015C12.3897 8.6708 12.1989 8.74982 12 8.74982C11.8011 8.74982 11.6103 8.6708 11.4697 8.53015C11.329 8.3895 11.25 8.19873 11.25 7.99982V6.49982ZM6 14.7498H4.5C4.30109 14.7498 4.11032 14.6708 3.96967 14.5301C3.82902 14.3895 3.75 14.1987 3.75 13.9998C3.75 13.8009 3.82902 13.6101 3.96967 13.4695C4.11032 13.3288 4.30109 13.2498 4.5 13.2498H6C6.19891 13.2498 6.38968 13.3288 6.53033 13.4695C6.67098 13.6101 6.75 13.8009 6.75 13.9998C6.75 14.1987 6.67098 14.3895 6.53033 14.5301C6.38968 14.6708 6.19891 14.7498 6 14.7498ZM8.2875 10.2873C8.14686 10.4279 7.95617 10.5068 7.75734 10.5068C7.55852 10.5068 7.36783 10.4279 7.22719 10.2873L6.16641 9.22701C6.02574 9.08634 5.94671 8.89555 5.94671 8.69662C5.94671 8.49768 6.02574 8.30689 6.16641 8.16622C6.30708 8.02556 6.49786 7.94653 6.6968 7.94653C6.89573 7.94653 7.08652 8.02556 7.22719 8.16622L8.2875 9.22701C8.42805 9.36764 8.507 9.55833 8.507 9.75716C8.507 9.95599 8.42805 10.1467 8.2875 10.2873ZM15.2859 11.3701L13.0594 14.9092C12.9683 15.0354 12.8575 15.1462 12.7313 15.2373C12.4265 15.4499 12.0501 15.5338 11.6839 15.4706C11.3177 15.4075 10.9912 15.2025 10.7752 14.9001C10.5592 14.5977 10.4712 14.2224 10.5302 13.8555C10.5893 13.4886 10.7907 13.1598 11.0906 12.9404L14.6297 10.7139C14.7101 10.6578 14.8058 10.6277 14.9039 10.6277C15.002 10.6277 15.0977 10.6578 15.1781 10.7139C15.2792 10.7868 15.3472 10.8968 15.3674 11.0198C15.3876 11.1427 15.3583 11.2687 15.2859 11.3701ZM16.7728 10.2873C16.631 10.422 16.4422 10.496 16.2466 10.4935C16.0511 10.491 15.8642 10.4122 15.7259 10.2739C15.5876 10.1356 15.5088 9.94876 15.5063 9.75319C15.5038 9.55761 15.5778 9.3688 15.7125 9.22701L16.7728 8.16622C16.9135 8.02556 17.1043 7.94653 17.3032 7.94653C17.5021 7.94653 17.6929 8.02556 17.8336 8.16622C17.9743 8.30689 18.0533 8.49768 18.0533 8.69662C18.0533 8.89555 17.9743 9.08634 17.8336 9.22701L16.7728 10.2873ZM19.5 14.7498H18C17.8011 14.7498 17.6103 14.6708 17.4697 14.5301C17.329 14.3895 17.25 14.1987 17.25 13.9998C17.25 13.8009 17.329 13.6101 17.4697 13.4695C17.6103 13.3288 17.8011 13.2498 18 13.2498H19.5C19.6989 13.2498 19.8897 13.3288 20.0303 13.4695C20.171 13.6101 20.25 13.8009 20.25 13.9998C20.25 14.1987 20.171 14.3895 20.0303 14.5301C19.8897 14.6708 19.6989 14.7498 19.5 14.7498Z" fill="white"/>
</svg>
