<svg width="24" height="25" viewBox="0 0 24 25" fill="none" xmlns="http://www.w3.org/2000/svg">
<path d="M5 8.49982H13.5C13.9644 8.50871 14.4222 8.38802 14.8218 8.1513C15.2215 7.91458 15.5473 7.57119 15.7627 7.15965C15.9782 6.7481 16.0747 6.28468 16.0414 5.82135C16.0082 5.35802 15.8465 4.91312 15.5745 4.53655C15.3026 4.15998 14.931 3.86662 14.5017 3.68939C14.0723 3.51216 13.602 3.45806 13.1436 3.53317C12.6852 3.60827 12.2568 3.80961 11.9064 4.11459C11.5561 4.41957 11.2976 4.81614 11.16 5.25982" fill="white"/>
<path d="M3 12.4998H18.5C18.9644 12.4909 19.4222 12.6116 19.8218 12.8483C20.2215 13.0851 20.5473 13.4284 20.7627 13.84C20.9782 14.2515 21.0747 14.715 21.0414 15.1783C21.0082 15.6416 20.8465 16.0865 20.5745 16.4631C20.3026 16.8397 19.931 17.133 19.5017 17.3102C19.0723 17.4875 18.602 17.5416 18.1436 17.4665C17.6852 17.3914 17.2568 17.19 16.9064 16.885C16.5561 16.5801 16.2976 16.1835 16.16 15.7398" fill="white"/>
<path d="M4 16.4998H9.5C9.96443 16.4909 10.4222 16.6116 10.8218 16.8483C11.2215 17.085 11.5473 17.4284 11.7627 17.84C11.9782 18.2515 12.0747 18.715 12.0414 19.1783C12.0082 19.6416 11.8465 20.0865 11.5745 20.4631C11.3026 20.8397 10.931 21.133 10.5017 21.3102C10.0723 21.4875 9.60203 21.5416 9.14362 21.4665C8.68522 21.3914 8.2568 21.19 7.90643 20.885C7.55605 20.5801 7.29758 20.1835 7.16 19.7398" fill="white"/>
</svg>
